<svg xmlns="http://www.w3.org/2000/svg" width="100" height="28.368"><path d="M5.14668.099802C3.099937.956542.849886 3.376932.139246 6.415042c-.89997 3.849411 2.845225 5.477211 3.152407 4.943471.36155-.62714-.671095-.83922-.883657-2.836472-.274721-2.57962.92454-5.46205 2.43385-6.72678.280554-.23498.267208.0921.267208.697 0 1.08176-.05978 10.792812-.05978 12.819512 0 2.74239-.11327 3.60838-.316702 4.4641-.206124.86718-.537498 1.45312-.2864 1.67883.28054.25247 1.47835-.34807 2.17178-1.31588.831524-1.16074 1.122595-2.55472 1.174855-4.06856.06312-1.82489.06043-4.72061.06312-6.372311.0026-1.51485.02552-5.95067-.02655-8.61732-.01277-.65408-1.826745-1.3403-2.682802-.98163m72.679818 12.834961c-.066 1.4257-.38158 2.54007-.77325 3.3261-.75826 1.52171-2.331692 1.99422-2.999744-.19329-.364064-1.19242-.38107-3.18387-.11933-4.84785.266438-1.695132 1.010398-2.975342 2.242304-2.859892 1.21509.11413 1.78383 1.679822 1.65002 4.574872zm-20.484163 8.84539c-.01649 2.36889-.389316 4.44591-1.188819 5.04917-1.133946.85538-2.658053.21375-2.342462-1.51486.279241-1.52965 1.599852-3.09181 3.534488-5.00052 0 0 .0041.43527-.0032 1.46621zm-.309695-8.85919c-.06934 1.29853-.405983 2.60301-.773253 3.34008-.758102 1.5217-2.342967 1.99742-2.999745-.19329-.449063-1.49679-.341512-3.43401-.119329-4.65464.288318-1.583702.987178-3.052942 2.242311-3.052942 1.220296 0 1.822035 1.3388 1.650016 4.560892zm-11.866514-.0199c-.07439 1.37527-.342687 2.52492-.773241 3.35994-.778973 1.51123-2.320076 1.99051-2.999744-.19329-.489972-1.57469-.323167-3.72183-.119342-4.88171.302473-1.721202 1.059893-2.941502 2.242323-2.825871 1.214577.11867 1.805029 1.679641 1.650004 4.541031zm54.381502 1.60638c-.29692 0-.43242.30604-.54451.82121-.38882 1.79122-.79748 2.19568-1.32449 2.19568-.58877 0-1.1178-.88694-1.2538-2.66244-.10688-1.3961-.0897-3.96638.047-6.523122.0279-.52531-.11698-1.04507-1.52595-1.55692-.60629-.22017-1.4876-.54434-1.9264.51488-1.23982 2.992502-1.72491 5.368292-1.83903 6.333432-.006.05-.0672.0602-.0779-.0565-.0727-.773-.2353-2.17769-.2555-5.128952-.004-.57582-.1259-1.06596-.76146-1.46723-.41239-.26038-1.66467-.72089-2.11558-.17303-.39067.44807-.84311 1.65388-1.31321 3.08323-.38208 1.161722-.64819 1.947602-.64819 1.947602s.005-3.134562.01-4.323562c.002-.44856-.30567-.59803-.39841-.62512-.4176-.1212-1.24033-.32368-1.58959-.32368-.43089 0-.53642.24086-.53642.59181 0 .046-.068 4.126962-.068 6.980592 0 .12395 0 .25919.00099.40285-.23833 1.31156-1.01125 3.09198-1.85182 3.09198-.84159 0-1.23864-.74434-1.23864-4.14631 0-1.98463.0595-2.84759.0889-4.282992.017-.82677.0499-1.46167.048-1.60575-.006-.44182-.77021-.66451-1.1257-.74681-.35717-.083-.66755-.11514-.90992-.10134-.34303.0194-.58574.24441-.58574.55394 0 .16596.002.48155.002.48155-.44184-.6943-1.15246-1.17755-1.62528-1.31758-1.273475-.37821-2.602344-.0431-3.604663 1.3595-.796649 1.11442-1.276846 2.376632-1.465872 4.190082-.138182 1.32576-.09309 2.67017.152498 3.80715-.29674 1.28294-.847646 1.80856-1.450888 1.80856-.875753 0-1.510648-1.42944-1.436924-3.90158.04864-1.62603.374-2.76713.729655-4.417981.151654-.70374.02844-1.07218-.280592-1.42531-.283445-.32384-.887356-.48929-1.755546-.2858-.618393.14509-1.502555.30111-2.31149.42096 0 0 .04882-.19475.08887-.5381.21039-1.80066-1.746291-1.65456-2.370581-1.07943-.372649.34337-.626309.74834-.722584 1.47648-.152664 1.1555.789743 1.70051.789743 1.70051-.309203 1.415371-1.067128 3.264331-1.849636 4.601101-.419102.71621-.739743 1.24693-1.153643 1.81109-.0015-.21007-.0027-.42012-.0034-.62921-.0095-2.97568.03012-5.31764.04763-6.161752.01701-.82676.05016-1.44483.0483-1.58891-.0046-.32316-.193395-.4452-.585906-.59971-.347068-.13667-.757432-.23127-1.183099-.26426-.53727-.0419-.860943.24306-.852533.58002.0017.0636.0017.45429.0017.45429-.441841-.69431-1.152469-1.17754-1.62527-1.31759-1.273491-.37804-2.602347-.0429-3.604677 1.3595-.796473 1.11443-1.318086 2.678262-1.465875 4.176282-.137677 1.39617-.11226 2.58265.07541 3.58211-.202486 1.00083-.784692 2.04742-1.442984 2.04742-.841586 0-1.320448-.74436-1.320448-4.14632 0-1.98462.05959-2.84759.08887-4.282832.01699-.82676.04983-1.46182.04797-1.60574-.0062-.44183-.770222-.66451-1.1257-.74699-.371981-.086-.693128-.11765-.939718-.0995-.325352.0242-.554101.31561-.554101.5329v.50075c-.441828-.69432-1.152455-1.17755-1.625268-1.3176-1.273478-.37804-2.594935-.0375-3.604665 1.3595-.658456.91093-1.191521 1.92084-1.465876 4.156422-.07928.64605-.114293 1.25102-.109747 1.81648-.262574 1.60579-1.422278 3.45655-2.370909 3.45655-.55511 0-1.083794-1.0767-1.083794-3.37139 0-3.05663.189191-7.408632.221173-7.828072 0 0 1.19858-.0204 1.430699-.0231.597851-.007 1.139337.008 1.935634-.0332.399416-.0204.784188-1.45376.37198-1.63116-.18683-.0803-1.507277-.15064-2.030734-.16175-.440149-.01-1.665496-.10066-1.665496-.10066s.109911-2.88865.135492-3.1938c.02172-.25433-.307347-.38528-.496033-.46474-.458823-.19406-.869351-.28698-1.355952-.38729-.672269-.13869-.977255-.003-1.036838.56436-.08971.86112-.136173 3.38334-.136173 3.38334-.493331 0-2.178524-.0964-2.672019-.0964-.458495 0-.953353 1.97184-.319467 1.99607.729314.0283 2.000279.0527 2.842862.0781 0 0-.03752 4.423702-.03752 5.789422 0 .1453.0013.28523.0015.421-.463722 2.41703-2.097059 3.72265-2.097059 3.72265.350769-1.599-.365756-2.79978-1.656406-3.81624-.475501-.37457-1.414209-1.08368-2.464506-1.86075 0 0 .608305-.599542 1.147759-1.805692.382245-.85438.398748-1.83214-.539454-2.04774-1.550207-.3565-2.828394.78199-3.209642 1.99741-.29539.94156-.13784 1.640242.440831 2.366022.04225.053.08803.10722.135327.16176-.349934.67447-.830651 1.58255-1.237808 2.28675-1.130083 1.95517-1.983777 3.50166-2.628938 3.50166-.51573 0-.508823-1.57009-.508823-3.04013 0-1.26731.09359-3.17261.168319-5.145282.02473-.65239-.301462-1.02405-.848316-1.36067-.332258-.20451-1.041383-.60662-1.452075-.60662-.614719 0-2.388245.0837-4.064005 4.931012-.211187.61097-.62607 1.72424-.62607 1.72424l.0357-5.829152c0-.13667-.07279-.2688-.239456-.35919-.282385-.15334-1.036598-.46691-1.707239-.46691-.319531 0-.478987.14863-.478987.44486l-.0585 9.119752c0 .69293.01807 1.50129.08658 1.85485.06826.354.178838.64198.315793.81332.136755.17101.294948.30146.555768.3553.242751.05 1.571999.22067 1.64109-.28731.08278-.60877.08594-1.26724.783935-3.72301 1.086623-3.82331 2.503383-5.688772 3.169401-6.351272.116452-.11579.249419-.1227.243017.0668-.02843.83823-.128422 2.932772-.195731 4.712212-.180416 4.76202.68588 5.64467 1.923865 5.64467.947117 0 2.282211-.94107 3.713402-3.32324.892255-1.48454 1.758576-2.94016 2.381009-3.98928.433761.40153.920526.8337 1.406963 1.29538 1.13041 1.07289 1.501557 2.09235 1.255309 3.05949-.188345.73935-.897634 1.50131-2.160014.76072-.36794-.21606-.524984-.38299-.894944-.62658-.198774-.13085-.502258-.16997-.684201-.0329-.472637.35636-.742951.80963-.897294 1.3708-.150138.54605.396716.83469.963607 1.08717.488115.2173 1.537238.4142 2.2063.43662 2.606892.0872 4.695203-1.25869 6.148944-4.73037.260226 2.99823 1.367745 4.69486 3.291953 4.69486 1.286444 0 2.576247-1.66285 3.140285-3.29867.161918.66681.401601 1.24667.711132 1.73702 1.482707 2.34921 4.359067 1.84358 5.803908-.15127.446715-.6164.514707-.8379.514707-.8379.210731 1.88362 1.727604 2.54175 2.596123 2.54175.972709 0 1.977047-.45984 2.680945-2.04455.08248.17199.172524.33623.270831.49192 1.482694 2.3492 4.359067 1.84358 5.803896-.15127.06817-.0936.127246-.17846.178926-.25465l.04241 1.23726s-.82425.75611-1.330207 1.21996c-2.226831 2.04304-3.920092 3.59306-4.044649 5.39809-.159899 2.30157 1.706733 3.15696 3.11891 3.26905 1.4997.11901 2.783961-.70943 3.573364-1.86883.694302-1.02048 1.148769-3.21686 1.115435-5.38613-.01329-.86867-.03518-1.97318-.05235-3.15712.782673-.90891 1.664486-2.05768 2.476451-3.40235.884845-1.46541 1.833134-3.43333 2.318725-4.964852 0 0 .823922.007 1.703199-.0505.281261-.0183.362056.039.310048.24524-.06279.249102-1.11089 4.291742-.154355 6.984812.654757 1.84357 2.130733 2.43672 3.005804 2.43672 1.024376 0 2.00432-.7736 2.529466-1.92234.06329.12807.129431.25199.20164.3664 1.482707 2.3492 4.348977 1.84054 5.803907-.15128.32838-.44939.51471-.8379.51471-.8379.31224 1.94945 1.82826 2.55168 2.6966 2.55168.90454 0 1.76296-.37082 2.45946-2.01879.0291.7256.0749 1.31892.14727 1.50598.0441.11439.30112.258.48811.32736.82744.30684 1.67139.16174 1.98362.0986.21629-.0438.38494-.2173.408-.66538.0606-1.17652.0234-3.15325.38006-4.62232.5987-2.46551 1.15718-3.42188 1.42211-3.895352.14828-.26527.31559-.30904.32166-.0283.0125.568072.0407 2.236272.27267 4.477572.17033 1.6484.3979 2.62271.57278 2.93107.49906.88181 1.11544.92357 1.61737.92357.31929 0 .98699-.0882.92725-.64939-.0291-.27353.0219-1.96393.61216-4.39291.38545-1.5862 1.02808-3.01944 1.25986-3.543402.0855-.19324.12522-.0409.12388-.0112-.0489 1.092382-.15839 4.665412.28663 6.619572.60326 2.64728 2.34837 2.94352 2.9565 2.94352 1.29821 0 2.35997-.98755 2.71764-3.58599.0862-.62533-.0414-1.10818-.42366-1.10818" fill="#262626"/></svg>