<?xml version="1.0" standalone="no"?>
<!DOCTYPE svg PUBLIC "-//W3C//DTD SVG 20010904//EN"
 "http://www.w3.org/TR/2001/REC-SVG-20010904/DTD/svg10.dtd">
<svg version="1.0" xmlns="http://www.w3.org/2000/svg"
 width="700.000000pt" height="700.000000pt" viewBox="0 0 700.000000 700.000000"
 preserveAspectRatio="xMidYMid meet">
<metadata>
Created by potrace 1.11, written by Peter Selinger 2001-2013
</metadata>
<g transform="translate(0.000000,700.000000) scale(0.100000,-0.100000)"
fill="#000000" stroke="none">
<path d="M1929 6985 c-175 -24 -254 -41 -412 -91 -811 -253 -1414 -995 -1505
-1849 -4 -38 -7 -747 -7 -1575 0 -1375 2 -1513 17 -1600 10 -52 20 -111 24
-130 12 -66 75 -275 110 -365 20 -49 60 -135 89 -190 267 -510 709 -889 1245
-1069 75 -24 147 -47 160 -50 14 -2 57 -11 96 -20 69 -15 86 -17 229 -35 39
-5 727 -9 1530 -9 1490 0 1514 0 1715 37 152 27 362 95 513 165 120 55 306
165 374 221 7 6 18 15 25 20 407 314 682 730 802 1214 13 53 27 116 31 141 4
25 9 54 11 65 16 83 19 322 19 1635 0 1341 -3 1556 -20 1640 -3 14 -7 41 -10
61 -3 20 -16 80 -30 135 -15 54 -28 106 -30 114 -13 54 -85 234 -135 335 -272
551 -770 964 -1365 1133 -83 24 -202 49 -265 57 -25 3 -76 10 -115 14 -38 5
-729 9 -1535 9 -1138 0 -1486 -3 -1561 -13z m3035 -649 c102 -9 289 -53 386
-91 469 -180 818 -567 941 -1042 31 -121 35 -147 46 -258 8 -93 8 -2753 0
-2875 -8 -111 -10 -122 -42 -257 -147 -617 -702 -1091 -1345 -1150 -94 -8
-2786 -8 -2896 0 -530 42 -1020 384 -1250 872 -85 180 -122 322 -142 537 -9
97 -7 2803 2 2893 54 532 386 1002 870 1231 174 82 320 121 534 142 85 9 2803
7 2896 -2z"/>
<path d="M5350 5610 c-182 -24 -263 -239 -142 -381 79 -92 223 -105 321 -28
17 13 42 47 56 75 56 111 21 240 -82 301 -54 31 -95 40 -153 33z"/>
<path d="M3348 5245 c-1 -1 -29 -5 -60 -9 -380 -40 -769 -233 -1044 -519 -235
-244 -402 -562 -459 -870 -8 -45 -17 -95 -21 -112 -3 -16 -7 -106 -9 -200 -4
-190 14 -342 60 -505 137 -486 475 -889 929 -1106 259 -123 495 -174 781 -169
88 2 180 6 205 10 390 57 725 223 1000 495 87 86 230 257 230 275 0 3 17 31
37 62 114 176 206 439 240 683 10 72 10 371 0 435 -19 122 -30 176 -57 271
-54 188 -146 376 -267 548 -74 103 -275 304 -380 379 -228 162 -494 274 -743
312 -25 4 -54 10 -65 12 -22 6 -371 13 -377 8z m280 -660 c183 -23 326 -76
482 -179 67 -44 202 -169 255 -236 33 -41 99 -151 127 -211 33 -70 75 -202 83
-260 3 -24 8 -57 12 -74 7 -37 7 -225 -1 -262 -3 -15 -8 -41 -11 -58 -10 -59
-15 -79 -36 -144 -55 -165 -169 -344 -296 -461 -65 -60 -175 -140 -193 -140
-5 0 -10 -3 -12 -8 -9 -20 -210 -101 -293 -118 -51 -10 -73 -14 -105 -20 -43
-7 -245 -7 -280 0 -13 3 -42 8 -63 11 -96 15 -329 108 -378 151 -8 8 -20 14
-26 14 -6 0 -13 3 -15 8 -1 4 -29 27 -61 51 -245 186 -409 521 -410 836 0 307
108 571 322 786 194 193 449 310 696 318 38 1 71 3 72 4 3 4 73 -1 131 -8z"/>
</g>
</svg>
